<svg xmlns="http://www.w3.org/2000/svg"><symbol id="icons-polaris-mobile-chevron"><svg xmlns="http://www.w3.org/2000/svg" viewBox="0 0 20 20"><path d="M14 20c-.275 0-.55-.112-.747-.335l-8-9c-.337-.38-.337-.95 0-1.328l8-9c.366-.414.998-.452 1.41-.083.414.366.45 1 .084 1.41l-7.41 8.337 7.41 8.337c.367.412.33 1.045-.083 1.41-.19.17-.428.254-.664.254z"/></svg>
</symbol><symbol id="modules-caret-down"><svg xmlns="http://www.w3.org/2000/svg" baseProfile="tiny" viewBox="0 0 10.289 6.563"><path d="M5.212 6.563L0 1.423 1.404 0l3.788 3.735L8.865.01l1.424 1.404"/></svg></symbol><symbol id="icons-polaris-desktop"><svg xmlns="http://www.w3.org/2000/svg" viewBox="0 0 20 20"><path fill="currentColor" d="M1 1h18v10H1V1z"/><path d="M13 14H2v-2h16v2h-5zm-.606 4H7.606c.16-.522.295-1.182.357-2h4.074c.062.818.196 1.478.357 2zM2 10V2h16v8H2zM19 0H1a1 1 0 0 0-1 1v14a1 1 0 0 0 1 1h4.95c-.156 1.657-.66 2.293-.658 2.293A.999.999 0 1 0 6 20h8c.39 0 .734-.242.897-.598s.09-.788-.166-1.084c-.005-.007-.522-.64-.68-2.318H19a1 1 0 0 0 1-1V1a1 1 0 0 0-1-1z"/></svg>
</symbol><symbol id="icons-polaris-mobile"><svg xmlns="http://www.w3.org/2000/svg" viewBox="0 0 20 20"><path fill="currentColor" d="M3 1h14v18H3V1z"/><path d="M17 0a1 1 0 0 1 1 1v18a1 1 0 0 1-1 1H3a1 1 0 0 1-1-1V1a1 1 0 0 1 1-1h14zM4 18h12V2H4v16zM9 6h2a1 1 0 1 0 0-2H9a1 1 0 1 0 0 2zm1 8a1 1 0 1 0 0 2 1 1 0 0 0 0-2z"/></svg>
</symbol></svg>