<svg xmlns="http://www.w3.org/2000/svg" viewBox="0 0 12 12" preserveAspectRatio="xMidYMid" focusable="false" aria-labelledby="unfullscreen-icon-title" role="img"><title id="unfullscreen-icon-title">Exit full screen</title><polyline class="fill" points="-1,-1 -1.1,-5 -2.1,-4 -4.1,-6 -6,-4.1 -4,-2.1 -5,-1.1" transform="translate(6,6) "/><polyline class="fill" points="-1,-1 -1.1,-5 -2.1,-4 -4.1,-6 -6,-4.1 -4,-2.1 -5,-1.1" transform="translate(6,6) rotate(90)"/><polyline class="fill" points="-1,-1 -1.1,-5 -2.1,-4 -4.1,-6 -6,-4.1 -4,-2.1 -5,-1.1" transform="translate(6,6) rotate(180)"/><polyline class="fill" points="-1,-1 -1.1,-5 -2.1,-4 -4.1,-6 -6,-4.1 -4,-2.1 -5,-1.1" transform="translate(6,6) rotate(270)"/></svg>