<svg xmlns="http://www.w3.org/2000/svg" class="icon-gear" viewBox="0 0 16 16" preserveAspectRatio="xMidYMid" focusable="false" aria-labelledby="settings-icon-title" role="img"><title id="settings-icon-title">Settings</title><defs><clipPath id="icon-gear-mask-hd"><polygon points="19 9.422 19 0 0 0 0 16 4.996 16 6 9.422 19 9.422"/></clipPath><clipPath id="icon-gear-mask-4k"><polygon points="19 0 0 0 0 16 .656 16 7.641 9.422 19 9.422"/></clipPath></defs><g class="icon-gear-group"><path class="icon-gear-cog fill" d="M8.75,0 L7.25,0 C6.69771525,0 6.25,0.44771525 6.25,1 L6.25,1.71 C6.24203899,2.03670262 6.03616565,2.32571712 5.73,2.44 C5.22486505,2.64787629 4.75048268,2.92375823 4.32,3.26 C4.06726048,3.46530794 3.71530155,3.4969447 3.43,3.34 L2.81,3 C2.57947626,2.86645499 2.30519371,2.83041629 2.04799634,2.89987835 C1.79079898,2.96934041 1.57195122,3.13856029 1.44,3.37 L1.44,3.37 L0.69,4.67 C0.438460777,5.14101477 0.601355467,5.72655514 1.06,6 L1.06,6 L1.68,6.36 C1.95609578,6.53006064 2.1022252,6.84996558 2.05,7.17 C1.97585362,7.71080372 1.97585362,8.25919628 2.05,8.8 C2.1022252,9.12003442 1.95609578,9.43993936 1.68,9.61 L1.06,10 C0.828560291,10.1319512 0.65934041,10.350799 0.589878348,10.6079963 C0.520416285,10.8651937 0.556454987,11.1394763 0.69,11.37 L0.69,11.37 L1.44,12.67 C1.72842942,13.137733 2.34023095,13.2851012 2.81,13 L2.81,13 L3.43,12.64 C3.71530155,12.4830553 4.06726048,12.5146921 4.32,12.72 C4.75048268,13.0562418 5.22486505,13.3321237 5.73,13.54 C6.03616565,13.6542829 6.24203899,13.9432974 6.25,14.27 L6.25,15 C6.25,15.5522847 6.69771525,16 7.25,16 L8.75,16 C9.30228475,16 9.75,15.5522847 9.75,15 L9.75,14.29 C9.75796101,13.9632974 9.96383435,13.6742829 10.27,13.56 C10.7751349,13.3521237 11.2495173,13.0762418 11.68,12.74 C11.9327395,12.5346921 12.2846984,12.5030553 12.57,12.66 L13.19,13.02 C13.4205237,13.153545 13.6948063,13.1895837 13.9520037,13.1201217 C14.209201,13.0506596 14.4280488,12.8814397 14.56,12.65 L14.56,12.65 L15.31,11.35 C15.5746773,10.8743026 15.4102265,10.2742794 14.94,10 L14.94,10 L14.32,9.64 C14.0439042,9.46993936 13.8977748,9.15003442 13.95,8.83 C14.0241464,8.28919628 14.0241464,7.74080372 13.95,7.2 C13.8977748,6.87996558 14.0439042,6.56006064 14.32,6.39 L14.94,6.03 C15.1714397,5.89804878 15.3406596,5.67920102 15.4101217,5.42200366 C15.4795837,5.16480629 15.443545,4.89052374 15.31,4.66 L15.31,4.66 L14.56,3.36 C14.426372,3.13025585 14.2067828,2.96315821 13.9497298,2.89561144 C13.6926768,2.82806466 13.4193087,2.86562606 13.19,3 L13.19,3 L12.57,3.36 C12.2846984,3.5169447 11.9327395,3.48530794 11.68,3.28 C11.2495173,2.94375823 10.7751349,2.66787629 10.27,2.46 C9.96383435,2.34571712 9.75796101,2.05670262 9.75,1.73 L9.75,1 C9.75,0.73478351 9.64464316,0.480429597 9.45710678,0.292893219 C9.2695704,0.10535684 9.01521649,-8.8817842e-16 8.75,0 Z M10.5,8 C10.5,9.38071187 9.38071187,10.5 8,10.5 C6.61928813,10.5 5.5,9.38071187 5.5,8 C5.5,6.61928813 6.61928813,5.5 8,5.5 C9.38071187,5.5 10.5,6.61928813 10.5,8 Z"/></g><g class="icon-gear-text icon-gear-text-hd"><polygon class="fill" points="10.17 12.38 10.46 10.43 12.22 10.43 11.36 16 9.6 16 9.95 13.76 8.09 13.76 7.77 16 6.01 16 6.85 10.43 8.61 10.43 8.32 12.38"/><path class="fill" d="M17.82,11.23 C17.65,10.98 17.32,10.43 15.93,10.43 L13.37,10.43 L12.51,16 L15.09,16 C16.1538092,16.0719871 17.159097,15.5065128 17.65,14.56 C18.1567595,13.5192032 18.2181336,12.3169925 17.82,11.23 Z M15.9,14.42 C15.6125419,14.6349311 15.2582986,14.7412041 14.9,14.72 L14.48,14.72 L14.9,11.72 L15.35,11.72 C15.6806309,11.6794538 16.0108877,11.7981978 16.24,12.04 C16.4818058,12.8447587 16.357466,13.7151373 15.9,14.42 Z"/></g><g class="icon-gear-text icon-gear-text-4k"><polygon class="fill" points="11.82 10.29 13.58 10.29 13.19 12.17 13.19 12.17 15.19 10.27 17.48 10.27 14.75 12.62 16.36 16 14.36 16 13.36 13.78 12.76 14.32 12.39 16 10.63 16"/><path class="fill" d="M7.86,14.9 L5.31,14.9 L5.61,13.41 L8.78,10.41 L10.36,10.41 L9.72,13.51 L10.44,13.51 L10.18,14.87 L9.45,14.87 L9.22,16 L7.63,16 L7.86,14.9 Z M8.19,13.54 L8.54,12 L8.54,12 L6.94,13.58 L8.19,13.54 Z"/></g></svg>