<svg xmlns="http://www.w3.org/2000/svg" viewBox="0 0 12 12" preserveAspectRatio="xMidYMid" focusable="false" aria-labelledby="fullscreen-icon-title" role="img"><title id="fullscreen-icon-title">Enter full screen</title><polyline class="fill" points="6,6 5.9,2 4.9,3 2.9,1 1,2.9 3,4.9 2,5.9" transform="translate(6,6)"/><polyline class="fill" points="6,6 5.9,2 4.9,3 2.9,1 1,2.9 3,4.9 2,5.9" transform="translate(6,6) rotate(90)"/><polyline class="fill" points="6,6 5.9,2 4.9,3 2.9,1 1,2.9 3,4.9 2,5.9" transform="translate(6,6) rotate(180)"/><polyline class="fill" points="6,6 5.9,2 4.9,3 2.9,1 1,2.9 3,4.9 2,5.9" transform="translate(6,6) rotate(270)"/></svg>